<svg version="1.1" id="Layer_1" xmlns="http://www.w3.org/2000/svg" xmlns:xlink="http://www.w3.org/1999/xlink" x="0px" y="0px"
	 width="100%" viewBox="0 0 603 547" enable-background="new 0 0 603 547" xml:space="preserve">
<path fill="#52575E" opacity="1.000000" stroke="none" 
	d="
M363.000000,548.000000 
	C242.000000,548.000000 121.500000,548.000000 1.000000,548.000000 
	C1.000000,365.666656 1.000000,183.333328 1.000000,1.000000 
	C202.000000,1.000000 403.000000,1.000000 604.000000,1.000000 
	C604.000000,183.333328 604.000000,365.666656 604.000000,548.000000 
	C523.833313,548.000000 443.666656,548.000000 363.000000,548.000000 
M502.957550,286.927673 
	C503.086945,287.059357 503.216339,287.191010 503.263794,288.098572 
	C502.696198,290.358307 502.120514,292.615997 501.562256,294.878052 
	C492.585999,331.250336 483.412079,367.575592 474.736389,404.019440 
	C471.296112,418.471100 469.403290,433.226990 472.284088,448.099854 
	C472.599060,449.726105 474.199585,451.103333 475.203827,452.596039 
	C477.126312,451.009460 479.658295,449.759644 480.779541,447.730408 
	C481.686523,446.088898 480.760742,443.501373 480.879364,441.346222 
	C481.454437,430.897156 481.140350,420.286194 482.902039,410.035187 
	C490.166168,367.766327 502.284760,326.690643 514.546448,285.664215 
	C515.914307,281.087524 518.149841,277.881561 522.283081,275.288300 
	C528.512695,271.379730 534.233826,266.660645 540.171082,262.286041 
	C539.897888,261.774078 539.624695,261.262115 539.351501,260.750153 
	C533.539795,262.493896 527.728088,264.237640 520.782288,266.321655 
	C521.674072,262.846344 522.085022,260.777466 522.733826,258.786133 
	C534.292419,223.306290 546.101990,187.906281 557.375671,152.336349 
	C563.856201,131.889282 572.475708,112.510422 583.143738,93.941544 
	C587.281189,86.739845 590.753113,79.144691 594.299072,71.620766 
	C595.416565,69.249557 596.133179,66.565552 596.425903,63.956570 
	C596.949524,59.289379 593.385986,55.597008 587.549255,54.133926 
	C582.800354,52.943523 582.932007,57.217716 581.976135,59.547073 
	C577.172058,71.254791 572.494873,83.024132 568.160828,94.913147 
	C559.881531,117.624237 551.484192,140.198013 538.558228,160.883850 
	C520.900818,189.141663 503.620636,217.643112 486.687744,246.340469 
	C482.333405,253.720093 478.119263,259.686798 468.581268,258.859406 
	C467.972321,258.806610 467.321320,259.238892 465.806732,259.308533 
	C448.087769,258.345795 432.753876,263.201752 420.380615,276.665527 
	C410.126587,287.823273 403.590179,300.960419 397.925568,314.734283 
	C397.236603,316.409576 395.747437,318.890228 394.458069,319.000671 
	C385.877625,319.735565 377.173767,320.800995 368.659973,320.052826 
	C359.872192,319.280579 355.795410,313.709442 356.276550,304.970428 
	C356.603546,299.031189 358.008453,293.153168 358.891663,287.241821 
	C359.263641,284.752228 359.533325,282.247314 359.999695,278.562622 
	C349.904022,281.588104 341.081848,284.231964 331.489136,287.106720 
	C332.208954,282.782867 332.990753,279.091583 333.400208,275.359436 
	C333.858887,271.178955 335.633728,269.950531 339.980133,270.499298 
	C348.383514,271.560272 356.880402,271.896637 365.343933,272.450470 
	C366.867279,272.550140 368.416626,272.252106 371.339142,272.034576 
	C369.204987,270.497162 368.391632,269.693481 367.415375,269.242249 
	C359.257080,265.471283 351.211334,261.392456 342.832581,258.188538 
	C338.290985,256.451935 337.198853,254.503265 338.255188,249.782059 
	C351.226135,191.810471 364.039734,133.803497 376.792786,75.783440 
	C379.610687,62.963394 382.254547,50.095741 384.547760,37.173557 
	C385.747986,30.410240 384.128265,24.196409 377.973816,20.013784 
	C371.943573,15.915563 365.376770,14.929870 359.194214,18.907646 
	C347.188232,26.632147 334.854340,34.074421 323.856079,43.096222 
	C286.943817,73.375122 255.688812,109.070381 227.326035,147.310715 
	C214.337662,164.822357 202.105453,182.894821 189.028580,201.120865 
	C179.726181,215.535004 170.281250,229.860321 161.209915,244.418457 
	C158.555450,248.678467 155.450836,250.660995 150.424500,250.940994 
	C139.094528,251.572144 127.711151,252.626450 117.605560,258.451721 
	C114.085220,260.481018 110.650230,263.144379 108.111221,266.276154 
	C104.295837,270.982300 105.033226,276.157928 109.798531,279.893097 
	C113.703331,282.953857 118.007759,285.597321 122.400642,287.924347 
	C132.877472,293.474213 132.707611,291.951111 126.523674,302.646851 
	C89.571793,366.558838 53.436634,430.906830 23.949043,498.710602 
	C18.587545,511.038818 14.414698,523.885681 9.772300,536.522278 
	C9.320217,537.752869 9.429016,539.189514 9.277455,540.530518 
	C16.210497,534.986267 20.552900,528.066467 24.205507,520.577332 
	C37.274776,493.780823 49.593174,466.569946 63.804501,440.389130 
	C88.833893,394.278717 115.083275,348.831116 140.704727,303.040497 
	C143.015060,298.911530 145.546677,298.244080 149.588226,300.293030 
	C154.040909,302.550415 158.674911,304.453674 163.250732,306.463867 
	C182.766922,315.037659 202.290802,323.593994 222.299942,332.614227 
	C240.311020,342.921661 257.337769,354.555847 271.478455,369.932037 
	C285.304901,384.966522 297.703735,401.244690 299.741028,422.211182 
	C301.080170,435.992859 299.605652,450.080414 298.957275,464.010803 
	C298.560059,472.544922 297.342468,481.040863 296.465332,489.834351 
	C309.878845,487.390472 315.091614,481.640198 315.330322,469.577972 
	C315.422394,464.927490 314.956299,460.265961 314.744690,455.609467 
	C314.224060,444.153473 312.681549,432.632538 313.404175,421.255493 
	C314.743286,400.172394 316.980194,379.119141 319.649597,358.156097 
	C321.897583,340.502563 325.074402,322.955353 328.276672,305.440918 
	C329.628357,298.047943 337.340240,292.624146 346.273895,292.350098 
	C346.273895,298.468201 346.021606,304.588470 346.336945,310.679382 
	C346.742645,318.516479 350.945953,324.037537 357.859161,327.576569 
	C364.481293,330.966614 371.525055,331.572876 378.782867,330.731445 
	C383.703583,330.160980 388.621490,329.566498 394.461487,328.873444 
	C394.461487,333.086121 394.315460,336.713531 394.490662,340.325378 
	C394.908142,348.931305 395.985504,357.421143 402.860443,363.628571 
	C404.425476,365.041687 406.845856,365.947357 408.979401,366.206360 
	C414.812836,366.914612 418.292633,362.802856 421.139618,358.763184 
	C432.362793,342.838257 443.424561,326.794495 454.236908,310.588470 
	C457.338379,305.939880 460.696472,302.237610 467.074493,301.068298 
	C469.124939,300.383728 471.229126,299.827148 473.216766,298.992920 
	C483.018616,294.879181 492.789642,290.691956 502.957550,286.927673 
z"/>
<path fill="#E4B09F" opacity="1.000000" stroke="none" 
	d="
M466.341705,301.142670 
	C460.696472,302.237610 457.338379,305.939880 454.236908,310.588470 
	C443.424561,326.794495 432.362793,342.838257 421.139618,358.763184 
	C418.292633,362.802856 414.812836,366.914612 408.979401,366.206360 
	C406.845856,365.947357 404.425476,365.041687 402.860443,363.628571 
	C395.985504,357.421143 394.908142,348.931305 394.490662,340.325378 
	C394.315460,336.713531 394.461487,333.086121 394.461487,328.873444 
	C388.621490,329.566498 383.703583,330.160980 378.782867,330.731445 
	C371.525055,331.572876 364.481293,330.966614 357.859161,327.576569 
	C350.945953,324.037537 346.742645,318.516479 346.336945,310.679382 
	C346.021606,304.588470 346.273895,298.468201 346.273895,292.350098 
	C337.340240,292.624146 329.628357,298.047943 328.276672,305.440918 
	C325.074402,322.955353 321.897583,340.502563 319.649597,358.156097 
	C316.980194,379.119141 314.743286,400.172394 313.404175,421.255493 
	C312.681549,432.632538 314.224060,444.153473 314.744690,455.609467 
	C314.956299,460.265961 315.422394,464.927490 315.330322,469.577972 
	C315.091614,481.640198 309.878845,487.390472 296.465332,489.834351 
	C297.342468,481.040863 298.560059,472.544922 298.957275,464.010803 
	C299.605652,450.080414 301.080170,435.992859 299.741028,422.211182 
	C297.703735,401.244690 285.304901,384.966522 271.478455,369.932037 
	C257.337769,354.555847 240.311020,342.921661 222.348434,332.181671 
	C224.649368,330.452423 226.901825,329.155762 229.501099,327.934448 
	C261.073822,344.727356 288.240295,365.818207 304.623993,399.064911 
	C308.954895,367.353363 313.123444,336.830597 317.390900,305.583618 
	C315.030884,306.523743 312.957703,307.358551 310.877869,308.176544 
	C302.584930,311.438202 294.319122,314.299774 285.249573,310.796417 
	C281.565674,309.373444 280.417389,307.665283 281.823578,303.728394 
	C286.273743,291.269135 294.176086,281.401581 304.029755,272.883514 
	C305.981476,271.196320 307.877197,269.444336 310.729828,266.887787 
	C307.890900,266.519043 306.326599,266.188049 304.752319,266.130615 
	C280.798370,265.256195 256.848785,264.126862 232.886429,263.658142 
	C211.921295,263.248077 190.941467,263.590057 169.944183,263.208130 
	C171.111298,259.238220 172.302338,255.659973 173.989120,252.174164 
	C224.095444,253.270935 273.706512,254.252747 323.315491,255.331604 
	C326.535095,255.401611 328.062988,254.538834 328.711731,251.156250 
	C331.626373,235.959015 334.443390,220.727768 337.961731,205.664368 
	C350.032837,153.982925 362.497253,102.393188 374.493835,50.694717 
	C376.121246,43.681477 376.212311,36.258598 376.488495,29.005350 
	C376.648102,24.814363 373.303802,23.407072 369.919495,24.614567 
	C366.247040,25.924866 362.513611,27.829550 359.606476,30.384859 
	C348.105652,40.493816 336.507111,50.547985 325.685577,61.363651 
	C278.854767,108.169167 234.620911,157.229691 196.809723,211.690460 
	C194.238571,207.862595 191.884445,204.287766 189.530304,200.712952 
	C202.105453,182.894821 214.337662,164.822357 227.326035,147.310715 
	C255.688812,109.070381 286.943817,73.375122 323.856079,43.096222 
	C334.854340,34.074421 347.188232,26.632147 359.194214,18.907646 
	C365.376770,14.929870 371.943573,15.915563 377.973816,20.013784 
	C384.128265,24.196409 385.747986,30.410240 384.547760,37.173557 
	C382.254547,50.095741 379.610687,62.963394 376.792786,75.783440 
	C364.039734,133.803497 351.226135,191.810471 338.255188,249.782059 
	C337.198853,254.503265 338.290985,256.451935 342.832581,258.188538 
	C351.211334,261.392456 359.257080,265.471283 367.415375,269.242249 
	C368.391632,269.693481 369.204987,270.497162 371.339142,272.034576 
	C368.416626,272.252106 366.867279,272.550140 365.343933,272.450470 
	C356.880402,271.896637 348.383514,271.560272 339.980133,270.499298 
	C335.633728,269.950531 333.858887,271.178955 333.400208,275.359436 
	C332.990753,279.091583 332.208954,282.782867 331.489136,287.106720 
	C341.081848,284.231964 349.904022,281.588104 359.999695,278.562622 
	C359.533325,282.247314 359.263641,284.752228 358.891663,287.241821 
	C358.008453,293.153168 356.603546,299.031189 356.276550,304.970428 
	C355.795410,313.709442 359.872192,319.280579 368.659973,320.052826 
	C377.173767,320.800995 385.877625,319.735565 394.458069,319.000671 
	C395.747437,318.890228 397.236603,316.409576 397.925568,314.734283 
	C403.590179,300.960419 410.126587,287.823273 420.380615,276.665527 
	C432.753876,263.201752 448.087769,258.345795 466.431824,259.627472 
	C468.363220,261.444763 469.669495,262.943115 470.521820,264.490051 
	C437.316254,263.178955 415.110138,295.991272 410.362610,314.116272 
	C411.587921,313.955170 412.743011,313.985260 413.771942,313.639679 
	C423.212311,310.468933 432.711700,307.448212 442.028168,303.943237 
	C448.633087,301.458374 455.562836,299.224182 460.041931,293.199127 
	C462.258209,296.044434 464.299957,298.593567 466.341705,301.142670 
M447.194977,310.712616 
	C445.651398,310.795959 443.975159,310.514984 442.585571,311.021088 
	C432.722992,314.612976 422.939240,318.420593 413.090149,322.050323 
	C405.401917,324.883698 405.188782,324.814697 405.226471,333.196869 
	C405.266418,342.085785 405.711029,350.972900 405.978912,359.860779 
	C406.537781,360.039185 407.096619,360.217621 407.655457,360.396057 
	C409.983887,358.390289 412.741333,356.713104 414.570343,354.324860 
	C425.492310,340.063477 436.200195,325.638153 447.194977,310.712616 
M294.591553,297.117004 
	C293.306763,299.320984 292.022003,301.524963 290.554382,304.042542 
	C291.804901,304.262817 292.338867,304.535980 292.729340,304.399231 
	C301.176788,301.441132 309.618988,298.466797 318.025970,295.396484 
	C318.864044,295.090393 319.964294,294.239044 320.105286,293.484344 
	C321.396759,286.569550 322.502991,279.620148 323.881470,271.375549 
	C311.291107,278.033875 301.961609,285.912201 294.591553,297.117004 
z"/>
<path fill="#AC796A" opacity="1.000000" stroke="none" 
	d="
M470.975769,264.441467 
	C469.669495,262.943115 468.363220,261.444763 466.873413,259.695953 
	C467.321320,259.238892 467.972321,258.806610 468.581268,258.859406 
	C478.119263,259.686798 482.333405,253.720093 486.687744,246.340469 
	C503.620636,217.643112 520.900818,189.141663 538.558228,160.883850 
	C551.484192,140.198013 559.881531,117.624237 568.160828,94.913147 
	C572.494873,83.024132 577.172058,71.254791 581.976135,59.547073 
	C582.932007,57.217716 582.800354,52.943523 587.549255,54.133926 
	C593.385986,55.597008 596.949524,59.289379 596.425903,63.956570 
	C596.133179,66.565552 595.416565,69.249557 594.299072,71.620766 
	C590.753113,79.144691 587.281189,86.739845 583.143738,93.941544 
	C572.475708,112.510422 563.856201,131.889282 557.375671,152.336349 
	C546.101990,187.906281 534.292419,223.306290 522.733826,258.786133 
	C522.085022,260.777466 521.674072,262.846344 520.782288,266.321655 
	C527.728088,264.237640 533.539795,262.493896 539.351501,260.750153 
	C539.624695,261.262115 539.897888,261.774078 540.171082,262.286041 
	C534.233826,266.660645 528.512695,271.379730 522.283081,275.288300 
	C518.149841,277.881561 515.914307,281.087524 514.546448,285.664215 
	C502.284760,326.690643 490.166168,367.766327 482.902039,410.035187 
	C481.140350,420.286194 481.454437,430.897156 480.879364,441.346222 
	C480.760742,443.501373 481.686523,446.088898 480.779541,447.730408 
	C479.658295,449.759644 477.126312,451.009460 475.203857,452.596069 
	C474.199585,451.103333 472.599060,449.726105 472.284088,448.099854 
	C469.403290,433.226990 471.296112,418.471100 474.736389,404.019440 
	C483.412079,367.575592 492.585999,331.250336 501.562256,294.878052 
	C502.120514,292.615997 502.696198,290.358307 503.347595,287.560913 
	C503.144775,286.859039 502.858154,286.694824 502.571533,286.530640 
	C492.789642,290.691956 483.018616,294.879181 473.216766,298.992920 
	C471.229126,299.827148 469.124939,300.383728 466.708099,301.105469 
	C464.299957,298.593567 462.258209,296.044434 460.098511,292.841553 
	C463.406464,285.270447 466.996521,278.426727 470.155304,271.389404 
	C471.066406,269.359619 470.736664,266.772858 470.975769,264.441467 
M534.383240,184.316925 
	C519.123230,209.104675 503.847504,233.882812 488.662903,258.716644 
	C488.078430,259.672485 487.788330,261.795166 488.344513,262.308563 
	C493.749054,267.297089 499.363770,272.057953 505.558350,277.439545 
	C506.769928,274.391785 507.596008,272.612244 508.195923,270.759491 
	C515.677856,247.652206 523.189026,224.553986 530.540466,201.405106 
	C532.346008,195.719467 533.602722,189.859528 535.299438,183.964752 
	C535.180420,183.957657 535.061462,183.950562 534.383240,184.316925 
M485.746094,284.189850 
	C489.627716,282.360016 493.509369,280.530212 497.390991,278.700409 
	C497.322754,278.181427 497.254486,277.662415 497.186249,277.143433 
	C492.955841,274.972321 488.777832,272.685699 484.453308,270.721832 
	C483.523132,270.299438 481.445709,270.607544 480.945221,271.317871 
	C476.820679,277.171753 472.943512,283.199921 468.991364,289.175232 
	C469.433411,289.695770 469.875488,290.216278 470.317535,290.736786 
	C475.227753,288.653015 480.137939,286.569214 485.746094,284.189850 
z"/>
<path fill="#AC796A" opacity="1.000000" stroke="none" 
	d="
M189.279449,200.916901 
	C191.884445,204.287766 194.238571,207.862595 196.718765,212.034576 
	C191.164093,221.649155 185.377014,230.602112 179.852036,239.713959 
	C177.454498,243.667984 175.596466,247.949142 173.493393,252.081726 
	C172.302338,255.659973 171.111298,259.238220 169.607880,263.334717 
	C167.386307,265.110077 165.059662,266.015869 163.648712,267.692291 
	C159.910110,272.134308 156.386292,276.785980 153.113220,281.583618 
	C149.039078,287.555481 149.178909,287.842529 155.678909,290.992340 
	C176.635757,301.147705 197.648788,311.187653 218.572037,321.411530 
	C222.267303,323.217194 225.635208,325.692841 229.154282,327.859100 
	C226.901825,329.155762 224.649368,330.452423 222.104401,331.952881 
	C202.290802,323.593994 182.766922,315.037659 163.250732,306.463867 
	C158.674911,304.453674 154.040909,302.550415 149.588226,300.293030 
	C145.546677,298.244080 143.015060,298.911530 140.704727,303.040497 
	C115.083275,348.831116 88.833893,394.278717 63.804501,440.389130 
	C49.593174,466.569946 37.274776,493.780823 24.205507,520.577332 
	C20.552900,528.066467 16.210497,534.986267 9.277455,540.530518 
	C9.429016,539.189514 9.320217,537.752869 9.772300,536.522278 
	C14.414698,523.885681 18.587545,511.038818 23.949043,498.710602 
	C53.436634,430.906830 89.571793,366.558838 126.523674,302.646851 
	C132.707611,291.951111 132.877472,293.474213 122.400642,287.924347 
	C118.007759,285.597321 113.703331,282.953857 109.798531,279.893097 
	C105.033226,276.157928 104.295837,270.982300 108.111221,266.276154 
	C110.650230,263.144379 114.085220,260.481018 117.605560,258.451721 
	C127.711151,252.626450 139.094528,251.572144 150.424500,250.940994 
	C155.450836,250.660995 158.555450,248.678467 161.209915,244.418457 
	C170.281250,229.860321 179.726181,215.535004 189.279449,200.916901 
M145.247192,271.794739 
	C146.064331,270.082458 146.881485,268.370148 148.335815,265.322662 
	C137.238007,265.997314 127.890182,267.908051 118.917252,272.395935 
	C121.418243,274.631805 123.882027,276.249115 126.504143,277.546387 
	C140.414612,284.428406 137.074631,285.300995 145.247192,271.794739 
z"/>
<path fill="#53585E" opacity="1.000000" stroke="none" 
	d="
M173.989120,252.174164 
	C175.596466,247.949142 177.454498,243.667984 179.852036,239.713959 
	C185.377014,230.602112 191.164093,221.649155 196.935776,212.287628 
	C234.620911,157.229691 278.854767,108.169167 325.685577,61.363651 
	C336.507111,50.547985 348.105652,40.493816 359.606476,30.384859 
	C362.513611,27.829550 366.247040,25.924866 369.919495,24.614567 
	C373.303802,23.407072 376.648102,24.814363 376.488495,29.005350 
	C376.212311,36.258598 376.121246,43.681477 374.493835,50.694717 
	C362.497253,102.393188 350.032837,153.982925 337.961731,205.664368 
	C334.443390,220.727768 331.626373,235.959015 328.711731,251.156250 
	C328.062988,254.538834 326.535095,255.401611 323.315491,255.331604 
	C273.706512,254.252747 224.095444,253.270935 173.989120,252.174164 
z"/>
<path fill="#53585F" opacity="1.000000" stroke="none" 
	d="
M229.501099,327.934448 
	C225.635208,325.692841 222.267303,323.217194 218.572037,321.411530 
	C197.648788,311.187653 176.635757,301.147705 155.678909,290.992340 
	C149.178909,287.842529 149.039078,287.555481 153.113220,281.583618 
	C156.386292,276.785980 159.910110,272.134308 163.648712,267.692291 
	C165.059662,266.015869 167.386307,265.110077 169.631836,263.726379 
	C190.941467,263.590057 211.921295,263.248077 232.886429,263.658142 
	C256.848785,264.126862 280.798370,265.256195 304.752319,266.130615 
	C306.326599,266.188049 307.890900,266.519043 310.729828,266.887787 
	C307.877197,269.444336 305.981476,271.196320 304.029755,272.883514 
	C294.176086,281.401581 286.273743,291.269135 281.823578,303.728394 
	C280.417389,307.665283 281.565674,309.373444 285.249573,310.796417 
	C294.319122,314.299774 302.584930,311.438202 310.877869,308.176544 
	C312.957703,307.358551 315.030884,306.523743 317.390900,305.583618 
	C313.123444,336.830597 308.954895,367.353363 304.623993,399.064911 
	C288.240295,365.818207 261.073822,344.727356 229.501099,327.934448 
z"/>
<path fill="#55595F" opacity="1.000000" stroke="none" 
	d="
M470.521820,264.490051 
	C470.736664,266.772858 471.066406,269.359619 470.155304,271.389404 
	C466.996521,278.426727 463.406464,285.270447 459.923950,292.545410 
	C455.562836,299.224182 448.633087,301.458374 442.028168,303.943237 
	C432.711700,307.448212 423.212311,310.468933 413.771942,313.639679 
	C412.743011,313.985260 411.587921,313.955170 410.362610,314.116272 
	C415.110138,295.991272 437.316254,263.178955 470.521820,264.490051 
z"/>
<path fill="#585A61" opacity="1.000000" stroke="none" 
	d="
M447.087463,310.990234 
	C436.200195,325.638153 425.492310,340.063477 414.570343,354.324860 
	C412.741333,356.713104 409.983887,358.390289 407.655457,360.396057 
	C407.096619,360.217621 406.537781,360.039185 405.978912,359.860779 
	C405.711029,350.972900 405.266418,342.085785 405.226471,333.196869 
	C405.188782,324.814697 405.401917,324.883698 413.090149,322.050323 
	C422.939240,318.420593 432.722992,314.612976 442.585571,311.021088 
	C443.975159,310.514984 445.651398,310.795959 447.087463,310.990234 
z"/>
<path fill="#595B61" opacity="1.000000" stroke="none" 
	d="
M294.795105,296.820374 
	C301.961609,285.912201 311.291107,278.033875 323.881470,271.375549 
	C322.502991,279.620148 321.396759,286.569550 320.105286,293.484344 
	C319.964294,294.239044 318.864044,295.090393 318.025970,295.396484 
	C309.618988,298.466797 301.176788,301.441132 292.729340,304.399231 
	C292.338867,304.535980 291.804901,304.262817 290.554382,304.042542 
	C292.022003,301.524963 293.306763,299.320984 294.795105,296.820374 
z"/>
<path fill="#55585E" opacity="1.000000" stroke="none" 
	d="
M535.111755,184.079712 
	C533.602722,189.859528 532.346008,195.719467 530.540466,201.405106 
	C523.189026,224.553986 515.677856,247.652206 508.195923,270.759491 
	C507.596008,272.612244 506.769928,274.391785 505.558350,277.439545 
	C499.363770,272.057953 493.749054,267.297089 488.344513,262.308563 
	C487.788330,261.795166 488.078430,259.672485 488.662903,258.716644 
	C503.847504,233.882812 519.123230,209.104675 534.705078,184.164368 
	C535.026917,184.011826 535.111755,184.079712 535.111755,184.079712 
z"/>
<path fill="#57595F" opacity="1.000000" stroke="none" 
	d="
M485.397125,284.337646 
	C480.137939,286.569214 475.227753,288.653015 470.317535,290.736786 
	C469.875488,290.216278 469.433411,289.695770 468.991364,289.175232 
	C472.943512,283.199921 476.820679,277.171753 480.945221,271.317871 
	C481.445709,270.607544 483.523132,270.299438 484.453308,270.721832 
	C488.777832,272.685699 492.955841,274.972321 497.186249,277.143433 
	C497.254486,277.662415 497.322754,278.181427 497.390991,278.700409 
	C493.509369,280.530212 489.627716,282.360016 485.397125,284.337646 
z"/>
<path fill="#55585E" opacity="1.000000" stroke="none" 
	d="
M534.984680,183.977631 
	C535.061462,183.950562 535.180420,183.957657 535.205566,184.022232 
	C535.111755,184.079712 535.026917,184.011826 534.984680,183.977631 
z"/>
<path fill="#52575E" opacity="1.000000" stroke="none" 
	d="
M502.764526,286.729126 
	C502.858154,286.694824 503.144775,286.859039 503.388550,287.172974 
	C503.216339,287.191010 503.086945,287.059357 502.764526,286.729126 
z"/>
<path fill="#57595F" opacity="1.000000" stroke="none" 
	d="
M145.065292,272.108826 
	C137.074631,285.300995 140.414612,284.428406 126.504143,277.546387 
	C123.882027,276.249115 121.418243,274.631805 118.917252,272.395935 
	C127.890182,267.908051 137.238007,265.997314 148.335815,265.322662 
	C146.881485,268.370148 146.064331,270.082458 145.065292,272.108826 
z"/>
</svg>